<svg width="1837" height="174" viewBox="0 0 1837 174" fill="none" xmlns="http://www.w3.org/2000/svg">
<path d="M1716.61 171C1714.85 171 1713.49 170.52 1712.53 169.56C1711.57 168.44 1711.09 167.08 1711.09 165.48V8.76C1711.09 7 1711.57 5.64001 1712.53 4.68001C1713.49 3.56 1714.85 3 1716.61 3L1727.65 3C1729.57 3 1731.01 3.48 1731.97 4.44001C1732.93 5.24001 1733.49 5.88001 1733.65 6.36L1813.33 128.76V8.76C1813.33 7 1813.81 5.64001 1814.77 4.68001C1815.73 3.56 1817.09 3 1818.85 3L1830.37 3C1832.13 3 1833.49 3.56 1834.45 4.68001C1835.57 5.64001 1836.13 7 1836.13 8.76V165.24C1836.13 166.84 1835.57 168.2 1834.45 169.32C1833.49 170.44 1832.21 171 1830.61 171H1819.09C1817.33 171 1815.97 170.52 1815.01 169.56C1814.21 168.6 1813.65 167.96 1813.33 167.64L1733.89 46.44V165.48C1733.89 167.08 1733.33 168.44 1732.21 169.56C1731.25 170.52 1729.89 171 1728.13 171H1716.61Z" fill="#175A5D"/>
<path d="M1539.03 171C1537.75 171 1536.63 170.52 1535.67 169.56C1534.71 168.6 1534.23 167.48 1534.23 166.2C1534.23 165.4 1534.31 164.52 1534.47 163.56L1593.99 8.28C1594.63 6.68 1595.51 5.40001 1596.63 4.44001C1597.75 3.48 1599.43 3 1601.67 3L1617.99 3C1620.07 3 1621.67 3.48 1622.79 4.44001C1624.07 5.40001 1625.03 6.68 1625.67 8.28L1684.95 163.56C1685.27 164.52 1685.43 165.4 1685.43 166.2C1685.43 167.48 1684.95 168.6 1683.99 169.56C1683.03 170.52 1681.91 171 1680.63 171H1668.39C1666.47 171 1665.03 170.52 1664.07 169.56C1663.27 168.6 1662.71 167.72 1662.39 166.92L1649.19 132.84H1570.47L1557.27 166.92C1557.11 167.72 1556.55 168.6 1555.59 169.56C1554.63 170.52 1553.19 171 1551.27 171H1539.03ZM1577.43 112.2H1642.23L1609.83 27L1577.43 112.2Z" fill="#175A5D"/>
<path d="M1457.36 173.4C1443.44 173.4 1431.76 171.32 1422.32 167.16C1412.88 162.84 1405.6 157.32 1400.48 150.6C1395.52 143.72 1392.88 136.44 1392.56 128.76C1392.56 127.48 1393.04 126.36 1394 125.4C1395.12 124.28 1396.4 123.72 1397.84 123.72H1410.08C1412 123.72 1413.44 124.2 1414.4 125.16C1415.36 126.12 1416 127.24 1416.32 128.52C1417.12 132.36 1419.04 136.2 1422.08 140.04C1425.28 143.72 1429.68 146.84 1435.28 149.4C1441.04 151.8 1448.4 153 1457.36 153C1471.12 153 1481.2 150.6 1487.6 145.8C1494.16 140.84 1497.44 134.28 1497.44 126.12C1497.44 120.52 1495.68 116.04 1492.16 112.68C1488.8 109.16 1483.6 106.04 1476.56 103.32C1469.52 100.6 1460.4 97.6401 1449.2 94.4401C1437.52 91.0801 1427.84 87.4001 1420.16 83.4001C1412.48 79.4001 1406.72 74.4401 1402.88 68.5201C1399.2 62.6001 1397.36 55.0801 1397.36 45.9601C1397.36 37.3201 1399.68 29.6401 1404.32 22.9201C1408.96 16.0401 1415.6 10.6001 1424.24 6.60009C1433.04 2.60009 1443.68 0.600098 1456.16 0.600098C1466.08 0.600098 1474.72 1.9601 1482.08 4.6801C1489.6 7.2401 1495.84 10.7601 1500.8 15.2401C1505.76 19.5601 1509.52 24.2801 1512.08 29.4001C1514.64 34.3601 1516 39.2401 1516.16 44.0401C1516.16 45.1601 1515.76 46.2801 1514.96 47.4001C1514.16 48.3601 1512.88 48.8401 1511.12 48.8401H1498.4C1497.28 48.8401 1496.08 48.5201 1494.8 47.8801C1493.68 47.2401 1492.8 46.0401 1492.16 44.2801C1491.2 37.7201 1487.52 32.2001 1481.12 27.7201C1474.72 23.2401 1466.4 21.0001 1456.16 21.0001C1445.76 21.0001 1437.28 23.0001 1430.72 27.0001C1424.32 31.0001 1421.12 37.2401 1421.12 45.7201C1421.12 51.1601 1422.64 55.7201 1425.68 59.4001C1428.72 62.9201 1433.52 66.0401 1440.08 68.7601C1446.64 71.4801 1455.2 74.3601 1465.76 77.4001C1478.56 80.9201 1489.04 84.6801 1497.2 88.6801C1505.36 92.5201 1511.36 97.4001 1515.2 103.32C1519.2 109.08 1521.2 116.52 1521.2 125.64C1521.2 135.72 1518.56 144.36 1513.28 151.56C1508 158.6 1500.56 164.04 1490.96 167.88C1481.52 171.56 1470.32 173.4 1457.36 173.4Z" fill="#175A5D"/>
<path d="M1308.06 173.4C1294.14 173.4 1282.46 171.32 1273.02 167.16C1263.58 162.84 1256.3 157.32 1251.18 150.6C1246.22 143.72 1243.58 136.44 1243.26 128.76C1243.26 127.48 1243.74 126.36 1244.7 125.4C1245.82 124.28 1247.1 123.72 1248.54 123.72H1260.78C1262.7 123.72 1264.14 124.2 1265.1 125.16C1266.06 126.12 1266.7 127.24 1267.02 128.52C1267.82 132.36 1269.74 136.2 1272.78 140.04C1275.98 143.72 1280.38 146.84 1285.98 149.4C1291.74 151.8 1299.1 153 1308.06 153C1321.82 153 1331.9 150.6 1338.3 145.8C1344.86 140.84 1348.14 134.28 1348.14 126.12C1348.14 120.52 1346.38 116.04 1342.86 112.68C1339.5 109.16 1334.3 106.04 1327.26 103.32C1320.22 100.6 1311.1 97.6401 1299.9 94.4401C1288.22 91.0801 1278.54 87.4001 1270.86 83.4001C1263.18 79.4001 1257.42 74.4401 1253.58 68.5201C1249.9 62.6001 1248.06 55.0801 1248.06 45.9601C1248.06 37.3201 1250.38 29.6401 1255.02 22.9201C1259.66 16.0401 1266.3 10.6001 1274.94 6.60009C1283.74 2.60009 1294.38 0.600098 1306.86 0.600098C1316.78 0.600098 1325.42 1.9601 1332.78 4.6801C1340.3 7.2401 1346.54 10.7601 1351.5 15.2401C1356.46 19.5601 1360.22 24.2801 1362.78 29.4001C1365.34 34.3601 1366.7 39.2401 1366.86 44.0401C1366.86 45.1601 1366.46 46.2801 1365.66 47.4001C1364.86 48.3601 1363.58 48.8401 1361.82 48.8401H1349.1C1347.98 48.8401 1346.78 48.5201 1345.5 47.8801C1344.38 47.2401 1343.5 46.0401 1342.86 44.2801C1341.9 37.7201 1338.22 32.2001 1331.82 27.7201C1325.42 23.2401 1317.1 21.0001 1306.86 21.0001C1296.46 21.0001 1287.98 23.0001 1281.42 27.0001C1275.02 31.0001 1271.82 37.2401 1271.82 45.7201C1271.82 51.1601 1273.34 55.7201 1276.38 59.4001C1279.42 62.9201 1284.22 66.0401 1290.78 68.7601C1297.34 71.4801 1305.9 74.3601 1316.46 77.4001C1329.26 80.9201 1339.74 84.6801 1347.9 88.6801C1356.06 92.5201 1362.06 97.4001 1365.9 103.32C1369.9 109.08 1371.9 116.52 1371.9 125.64C1371.9 135.72 1369.26 144.36 1363.98 151.56C1358.7 158.6 1351.26 164.04 1341.66 167.88C1332.22 171.56 1321.02 173.4 1308.06 173.4Z" fill="#175A5D"/>
<path d="M1084.34 171C1083.06 171 1081.94 170.52 1080.98 169.56C1080.02 168.6 1079.54 167.48 1079.54 166.2C1079.54 165.4 1079.62 164.52 1079.78 163.56L1139.3 8.28C1139.94 6.68 1140.82 5.40001 1141.94 4.44001C1143.06 3.48 1144.74 3 1146.98 3L1163.3 3C1165.38 3 1166.98 3.48 1168.1 4.44001C1169.38 5.40001 1170.34 6.68 1170.98 8.28L1230.26 163.56C1230.58 164.52 1230.74 165.4 1230.74 166.2C1230.74 167.48 1230.26 168.6 1229.3 169.56C1228.34 170.52 1227.22 171 1225.94 171H1213.7C1211.78 171 1210.34 170.52 1209.38 169.56C1208.58 168.6 1208.02 167.72 1207.7 166.92L1194.5 132.84H1115.78L1102.58 166.92C1102.42 167.72 1101.86 168.6 1100.9 169.56C1099.94 170.52 1098.5 171 1096.58 171H1084.34ZM1122.74 112.2H1187.54L1155.14 27L1122.74 112.2Z" fill="#175A5D"/>
<path d="M930.049 171C928.289 171 926.929 170.52 925.969 169.56C925.009 168.44 924.529 167.08 924.529 165.48V8.76C924.529 7 925.009 5.64001 925.969 4.68001C926.929 3.56 928.289 3 930.049 3L942.289 3C944.049 3 945.409 3.56 946.369 4.68001C947.489 5.64001 948.049 7 948.049 8.76V75H1030.61V8.76C1030.61 7 1031.09 5.64001 1032.05 4.68001C1033.17 3.56 1034.53 3 1036.13 3L1048.37 3C1050.13 3 1051.49 3.56 1052.45 4.68001C1053.57 5.64001 1054.13 7 1054.13 8.76V165.48C1054.13 167.08 1053.57 168.44 1052.45 169.56C1051.49 170.52 1050.13 171 1048.37 171H1036.13C1034.53 171 1033.17 170.52 1032.05 169.56C1031.09 168.44 1030.61 167.08 1030.61 165.48V96.6H948.049V165.48C948.049 167.08 947.489 168.44 946.369 169.56C945.409 170.52 944.049 171 942.289 171H930.049Z" fill="#175A5D"/>
<path d="M705.752 171C703.992 171 702.632 170.52 701.672 169.56C700.712 168.44 700.232 167.08 700.232 165.48V8.76C700.232 7 700.712 5.64001 701.672 4.68001C702.632 3.56 703.992 3 705.752 3L760.232 3C776.712 3 789.992 5.48 800.072 10.44C810.152 15.4 817.512 22.76 822.152 32.52C826.792 42.12 829.192 53.96 829.352 68.04C829.512 75.24 829.592 81.56 829.592 87C829.592 92.44 829.512 98.68 829.352 105.72C829.032 120.44 826.552 132.68 821.912 142.44C817.432 152.04 810.232 159.24 800.312 164.04C790.552 168.68 777.592 171 761.432 171H705.752ZM723.752 150.6H760.232C771.272 150.6 780.072 149.08 786.632 146.04C793.192 143 797.912 138.12 800.792 131.4C803.832 124.68 805.432 115.8 805.592 104.76C805.912 99.96 806.072 95.8 806.072 92.28C806.072 88.6 806.072 85 806.072 81.48C806.072 77.8 805.912 73.64 805.592 69C805.272 53.48 801.592 42.04 794.552 34.68C787.512 27.16 775.672 23.4 759.032 23.4L723.752 23.4V150.6Z" fill="#175A5D"/>
<path d="M528.171 171C526.891 171 525.771 170.52 524.811 169.56C523.851 168.6 523.371 167.48 523.371 166.2C523.371 165.4 523.451 164.52 523.611 163.56L583.131 8.28C583.771 6.68 584.651 5.40001 585.771 4.44001C586.891 3.48 588.571 3 590.811 3L607.131 3C609.211 3 610.811 3.48 611.931 4.44001C613.211 5.40001 614.171 6.68 614.811 8.28L674.091 163.56C674.411 164.52 674.571 165.4 674.571 166.2C674.571 167.48 674.091 168.6 673.131 169.56C672.171 170.52 671.051 171 669.771 171H657.531C655.611 171 654.171 170.52 653.211 169.56C652.411 168.6 651.851 167.72 651.531 166.92L638.331 132.84H559.611L546.411 166.92C546.251 167.72 545.691 168.6 544.731 169.56C543.771 170.52 542.331 171 540.411 171H528.171ZM566.571 112.2H631.371L598.971 27L566.571 112.2Z" fill="#175A5D"/>
<path d="M354.424 171C352.824 171 351.464 170.52 350.344 169.56C349.384 168.44 348.904 167.08 348.904 165.48V8.76C348.904 7 349.384 5.64001 350.344 4.68001C351.464 3.56 352.824 3 354.424 3L366.424 3C368.344 3 369.784 3.48 370.744 4.44001C371.704 5.40001 372.264 6.20001 372.424 6.84001L423.304 103.8L474.424 6.84001C474.744 6.20001 475.304 5.40001 476.104 4.44001C477.064 3.48 478.504 3 480.424 3L492.184 3C493.944 3 495.304 3.56 496.264 4.68001C497.384 5.64001 497.944 7 497.944 8.76V165.48C497.944 167.08 497.384 168.44 496.264 169.56C495.304 170.52 493.944 171 492.184 171H480.424C478.824 171 477.464 170.52 476.344 169.56C475.384 168.44 474.904 167.08 474.904 165.48V47.4L434.824 125.64C434.184 127.24 433.224 128.52 431.944 129.48C430.664 130.28 429.064 130.68 427.144 130.68H419.704C417.624 130.68 415.944 130.28 414.664 129.48C413.544 128.52 412.584 127.24 411.784 125.64L371.704 47.4V165.48C371.704 167.08 371.144 168.44 370.024 169.56C369.064 170.52 367.784 171 366.184 171H354.424Z" fill="#175A5D"/>
<path d="M183.331 171C181.571 171 180.211 170.52 179.251 169.56C178.291 168.44 177.811 167.08 177.811 165.48V8.76C177.811 7 178.291 5.64001 179.251 4.68001C180.211 3.56 181.571 3 183.331 3L195.571 3C197.331 3 198.691 3.56 199.651 4.68001C200.771 5.64001 201.331 7 201.331 8.76V75H283.891V8.76C283.891 7 284.371 5.64001 285.331 4.68001C286.451 3.56 287.811 3 289.411 3L301.651 3C303.411 3 304.771 3.56 305.731 4.68001C306.851 5.64001 307.411 7 307.411 8.76V165.48C307.411 167.08 306.851 168.44 305.731 169.56C304.771 170.52 303.411 171 301.651 171H289.411C287.811 171 286.451 170.52 285.331 169.56C284.371 168.44 283.891 167.08 283.891 165.48V96.6H201.331V165.48C201.331 167.08 200.771 168.44 199.651 169.56C198.691 170.52 197.331 171 195.571 171H183.331Z" fill="#175A5D"/>
<path d="M5.74922 171C4.46922 171 3.34922 170.52 2.38922 169.56C1.42922 168.6 0.949219 167.48 0.949219 166.2C0.949219 165.4 1.02922 164.52 1.18922 163.56L60.7092 8.28C61.3492 6.68 62.2292 5.40001 63.3492 4.44001C64.4692 3.48 66.1492 3 68.3892 3L84.7092 3C86.7892 3 88.3892 3.48 89.5092 4.44001C90.7892 5.40001 91.7492 6.68 92.3892 8.28L151.669 163.56C151.989 164.52 152.149 165.4 152.149 166.2C152.149 167.48 151.669 168.6 150.709 169.56C149.749 170.52 148.629 171 147.349 171H135.109C133.189 171 131.749 170.52 130.789 169.56C129.989 168.6 129.429 167.72 129.109 166.92L115.909 132.84H37.1892L23.9892 166.92C23.8292 167.72 23.2692 168.6 22.3092 169.56C21.3492 170.52 19.9092 171 17.9892 171H5.74922ZM44.1492 112.2H108.949L76.5492 27L44.1492 112.2Z" fill="#175A5D"/>
</svg>
