<svg width="446" height="447" viewBox="0 0 446 447" fill="none" xmlns="http://www.w3.org/2000/svg">
<g clip-path="url(#clip0_852_5)">
<path d="M446 0.166504H0V446.167H446V0.166504Z" fill="#175A5D"/>
<mask id="mask0_852_5" style="mask-type:luminance" maskUnits="userSpaceOnUse" x="27" y="27" width="392" height="392">
<path d="M40.5059 202.696H27.0039V216.198H40.5059V202.696Z" fill="white"/>
<path d="M40.5059 243.202H27.0039V256.704H40.5059V243.202Z" fill="white"/>
<path d="M40.5059 256.704H27.0039V270.206H40.5059V256.704Z" fill="white"/>
<path d="M40.5059 270.206H27.0039V283.708H40.5059V270.206Z" fill="white"/>
<path d="M40.5059 283.708H27.0039V297.209H40.5059V283.708Z" fill="white"/>
<path d="M54.0078 135.186H40.5059V148.688H54.0078V135.186Z" fill="white"/>
<path d="M54.0078 202.696H40.5059V216.198H54.0078V202.696Z" fill="white"/>
<path d="M54.0078 256.704H40.5059V270.206H54.0078V256.704Z" fill="white"/>
<path d="M54.0078 297.209H40.5059V310.711H54.0078V297.209Z" fill="white"/>
<path d="M67.5098 216.198H54.0078V229.7H67.5098V216.198Z" fill="white"/>
<path d="M67.5098 229.7H54.0078V243.202H67.5098V229.7Z" fill="white"/>
<path d="M67.5098 243.202H54.0078V256.704H67.5098V243.202Z" fill="white"/>
<path d="M67.5098 270.206H54.0078V283.708H67.5098V270.206Z" fill="white"/>
<path d="M67.5098 297.209H54.0078V310.711H67.5098V297.209Z" fill="white"/>
<path d="M81.0117 135.186H67.5098V148.688H81.0117V135.186Z" fill="white"/>
<path d="M81.0117 148.688H67.5098V162.19H81.0117V148.688Z" fill="white"/>
<path d="M81.0117 175.692H67.5098V189.194H81.0117V175.692Z" fill="white"/>
<path d="M81.0117 229.7H67.5098V243.202H81.0117V229.7Z" fill="white"/>
<path d="M81.0117 243.202H67.5098V256.704H81.0117V243.202Z" fill="white"/>
<path d="M81.0117 256.704H67.5098V270.206H81.0117V256.704Z" fill="white"/>
<path d="M81.0117 283.708H67.5098V297.209H81.0117V283.708Z" fill="white"/>
<path d="M81.0117 297.209H67.5098V310.711H81.0117V297.209Z" fill="white"/>
<path d="M94.5137 135.186H81.0117V148.688H94.5137V135.186Z" fill="white"/>
<path d="M94.5137 148.688H81.0117V162.19H94.5137V148.688Z" fill="white"/>
<path d="M94.5137 162.19H81.0117V175.692H94.5137V162.19Z" fill="white"/>
<path d="M94.5137 216.198H81.0117V229.7H94.5137V216.198Z" fill="white"/>
<path d="M94.5137 229.7H81.0117V243.202H94.5137V229.7Z" fill="white"/>
<path d="M94.5137 256.704H81.0117V270.206H94.5137V256.704Z" fill="white"/>
<path d="M94.5137 283.708H81.0117V297.209H94.5137V283.708Z" fill="white"/>
<path d="M108.016 148.688H94.5137V162.19H108.016V148.688Z" fill="white"/>
<path d="M108.016 162.19H94.5137V175.692H108.016V162.19Z" fill="white"/>
<path d="M108.016 189.194H94.5137V202.696H108.016V189.194Z" fill="white"/>
<path d="M108.016 243.202H94.5137V256.704H108.016V243.202Z" fill="white"/>
<path d="M108.016 256.704H94.5137V270.206H108.016V256.704Z" fill="white"/>
<path d="M108.016 270.206H94.5137V283.708H108.016V270.206Z" fill="white"/>
<path d="M121.518 135.186H108.016V148.688H121.518V135.186Z" fill="white"/>
<path d="M121.518 162.19H108.016V175.692H121.518V162.19Z" fill="white"/>
<path d="M121.518 189.194H108.016V202.696H121.518V189.194Z" fill="white"/>
<path d="M121.518 216.198H108.016V229.7H121.518V216.198Z" fill="white"/>
<path d="M121.518 243.202H108.016V256.704H121.518V243.202Z" fill="white"/>
<path d="M121.518 270.206H108.016V283.708H121.518V270.206Z" fill="white"/>
<path d="M121.518 297.209H108.016V310.711H121.518V297.209Z" fill="white"/>
<path d="M135.02 135.186H121.518V148.688H135.02V135.186Z" fill="white"/>
<path d="M135.02 148.688H121.518V162.19H135.02V148.688Z" fill="white"/>
<path d="M135.02 162.19H121.518V175.692H135.02V162.19Z" fill="white"/>
<path d="M135.02 189.194H121.518V202.696H135.02V189.194Z" fill="white"/>
<path d="M135.02 216.198H121.518V229.7H135.02V216.198Z" fill="white"/>
<path d="M135.02 229.7H121.518V243.202H135.02V229.7Z" fill="white"/>
<path d="M135.02 243.202H121.518V256.704H135.02V243.202Z" fill="white"/>
<path d="M135.02 297.209H121.518V310.711H135.02V297.209Z" fill="white"/>
<path d="M148.521 40.6724H135.02V54.1743H148.521V40.6724Z" fill="white"/>
<path d="M148.521 67.6763H135.02V81.1782H148.521V67.6763Z" fill="white"/>
<path d="M148.521 81.1782H135.02V94.6802H148.521V81.1782Z" fill="white"/>
<path d="M148.521 94.6802H135.02V108.182H148.521V94.6802Z" fill="white"/>
<path d="M148.521 108.182H135.02V121.684H148.521V108.182Z" fill="white"/>
<path d="M148.521 135.186H135.02V148.688H148.521V135.186Z" fill="white"/>
<path d="M148.521 148.688H135.02V162.19H148.521V148.688Z" fill="white"/>
<path d="M148.521 162.19H135.02V175.692H148.521V162.19Z" fill="white"/>
<path d="M148.521 175.692H135.02V189.194H148.521V175.692Z" fill="white"/>
<path d="M148.521 202.696H135.02V216.198H148.521V202.696Z" fill="white"/>
<path d="M148.521 270.206H135.02V283.708H148.521V270.206Z" fill="white"/>
<path d="M148.521 283.708H135.02V297.209H148.521V283.708Z" fill="white"/>
<path d="M148.521 310.711H135.02V324.213H148.521V310.711Z" fill="white"/>
<path d="M148.521 324.213H135.02V337.715H148.521V324.213Z" fill="white"/>
<path d="M148.521 351.217H135.02V364.719H148.521V351.217Z" fill="white"/>
<path d="M148.521 364.719H135.02V378.221H148.521V364.719Z" fill="white"/>
<path d="M148.521 391.723H135.02V405.225H148.521V391.723Z" fill="white"/>
<path d="M162.023 54.1743H148.521V67.6763H162.023V54.1743Z" fill="white"/>
<path d="M162.023 94.6802H148.521V108.182H162.023V94.6802Z" fill="white"/>
<path d="M162.023 121.684H148.521V135.186H162.023V121.684Z" fill="white"/>
<path d="M162.023 135.186H148.521V148.688H162.023V135.186Z" fill="white"/>
<path d="M162.023 148.688H148.521V162.19H162.023V148.688Z" fill="white"/>
<path d="M162.023 162.19H148.521V175.692H162.023V162.19Z" fill="white"/>
<path d="M162.023 202.696H148.521V216.198H162.023V202.696Z" fill="white"/>
<path d="M162.023 229.7H148.521V243.202H162.023V229.7Z" fill="white"/>
<path d="M162.023 256.704H148.521V270.206H162.023V256.704Z" fill="white"/>
<path d="M162.023 297.209H148.521V310.711H162.023V297.209Z" fill="white"/>
<path d="M162.023 310.711H148.521V324.213H162.023V310.711Z" fill="white"/>
<path d="M162.023 324.213H148.521V337.715H162.023V324.213Z" fill="white"/>
<path d="M162.023 337.715H148.521V351.217H162.023V337.715Z" fill="white"/>
<path d="M162.023 351.217H148.521V364.719H162.023V351.217Z" fill="white"/>
<path d="M162.023 364.719H148.521V378.221H162.023V364.719Z" fill="white"/>
<path d="M162.023 378.221H148.521V391.723H162.023V378.221Z" fill="white"/>
<path d="M162.023 391.723H148.521V405.225H162.023V391.723Z" fill="white"/>
<path d="M175.525 54.1743H162.023V67.6763H175.525V54.1743Z" fill="white"/>
<path d="M175.525 81.1782H162.023V94.6802H175.525V81.1782Z" fill="white"/>
<path d="M175.525 108.182H162.023V121.684H175.525V108.182Z" fill="white"/>
<path d="M175.525 121.684H162.023V135.186H175.525V121.684Z" fill="white"/>
<path d="M175.525 162.19H162.023V175.692H175.525V162.19Z" fill="white"/>
<path d="M175.525 175.692H162.023V189.194H175.525V175.692Z" fill="white"/>
<path d="M175.525 189.194H162.023V202.696H175.525V189.194Z" fill="white"/>
<path d="M175.525 202.696H162.023V216.198H175.525V202.696Z" fill="white"/>
<path d="M175.525 256.704H162.023V270.206H175.525V256.704Z" fill="white"/>
<path d="M175.525 270.206H162.023V283.708H175.525V270.206Z" fill="white"/>
<path d="M175.525 297.209H162.023V310.711H175.525V297.209Z" fill="white"/>
<path d="M175.525 310.711H162.023V324.213H175.525V310.711Z" fill="white"/>
<path d="M175.525 324.213H162.023V337.715H175.525V324.213Z" fill="white"/>
<path d="M175.525 337.715H162.023V351.217H175.525V337.715Z" fill="white"/>
<path d="M175.525 351.217H162.023V364.719H175.525V351.217Z" fill="white"/>
<path d="M175.525 364.719H162.023V378.221H175.525V364.719Z" fill="white"/>
<path d="M189.027 40.6724H175.525V54.1743H189.027V40.6724Z" fill="white"/>
<path d="M189.027 54.1743H175.525V67.6763H189.027V54.1743Z" fill="white"/>
<path d="M189.027 121.684H175.525V135.186H189.027V121.684Z" fill="white"/>
<path d="M189.027 162.19H175.525V175.692H189.027V162.19Z" fill="white"/>
<path d="M189.027 202.696H175.525V216.198H189.027V202.696Z" fill="white"/>
<path d="M189.027 243.202H175.525V256.704H189.027V243.202Z" fill="white"/>
<path d="M189.027 256.704H175.525V270.206H189.027V256.704Z" fill="white"/>
<path d="M189.027 297.209H175.525V310.711H189.027V297.209Z" fill="white"/>
<path d="M189.027 364.719H175.525V378.221H189.027V364.719Z" fill="white"/>
<path d="M189.027 405.225H175.525V418.727H189.027V405.225Z" fill="white"/>
<path d="M202.529 40.6724H189.027V54.1743H202.529V40.6724Z" fill="white"/>
<path d="M202.529 67.6763H189.027V81.1782H202.529V67.6763Z" fill="white"/>
<path d="M202.529 94.6802H189.027V108.182H202.529V94.6802Z" fill="white"/>
<path d="M202.529 108.182H189.027V121.684H202.529V108.182Z" fill="white"/>
<path d="M202.529 121.684H189.027V135.186H202.529V121.684Z" fill="white"/>
<path d="M202.529 135.186H189.027V148.688H202.529V135.186Z" fill="white"/>
<path d="M202.529 148.688H189.027V162.19H202.529V148.688Z" fill="white"/>
<path d="M202.529 162.19H189.027V175.692H202.529V162.19Z" fill="white"/>
<path d="M202.529 175.692H189.027V189.194H202.529V175.692Z" fill="white"/>
<path d="M202.529 202.696H189.027V216.198H202.529V202.696Z" fill="white"/>
<path d="M202.529 270.206H189.027V283.708H202.529V270.206Z" fill="white"/>
<path d="M202.529 310.711H189.027V324.213H202.529V310.711Z" fill="white"/>
<path d="M202.529 324.213H189.027V337.715H202.529V324.213Z" fill="white"/>
<path d="M202.529 391.723H189.027V405.225H202.529V391.723Z" fill="white"/>
<path d="M216.031 27.1704H202.529V40.6724H216.031V27.1704Z" fill="white"/>
<path d="M216.031 54.1743H202.529V67.6763H216.031V54.1743Z" fill="white"/>
<path d="M216.031 94.6802H202.529V108.182H216.031V94.6802Z" fill="white"/>
<path d="M216.031 121.684H202.529V135.186H216.031V121.684Z" fill="white"/>
<path d="M216.031 135.186H202.529V148.688H216.031V135.186Z" fill="white"/>
<path d="M216.031 175.692H202.529V189.194H216.031V175.692Z" fill="white"/>
<path d="M216.031 229.7H202.529V243.202H216.031V229.7Z" fill="white"/>
<path d="M216.031 256.704H202.529V270.206H216.031V256.704Z" fill="white"/>
<path d="M216.031 270.206H202.529V283.708H216.031V270.206Z" fill="white"/>
<path d="M216.031 324.213H202.529V337.715H216.031V324.213Z" fill="white"/>
<path d="M216.031 351.217H202.529V364.719H216.031V351.217Z" fill="white"/>
<path d="M216.031 378.221H202.529V391.723H216.031V378.221Z" fill="white"/>
<path d="M216.031 391.723H202.529V405.225H216.031V391.723Z" fill="white"/>
<path d="M229.533 67.6763H216.031V81.1782H229.533V67.6763Z" fill="white"/>
<path d="M229.533 81.1782H216.031V94.6802H229.533V81.1782Z" fill="white"/>
<path d="M229.533 94.6802H216.031V108.182H229.533V94.6802Z" fill="white"/>
<path d="M229.533 108.182H216.031V121.684H229.533V108.182Z" fill="white"/>
<path d="M229.533 162.19H216.031V175.692H229.533V162.19Z" fill="white"/>
<path d="M229.533 189.194H216.031V202.696H229.533V189.194Z" fill="white"/>
<path d="M229.533 216.198H216.031V229.7H229.533V216.198Z" fill="white"/>
<path d="M229.533 243.202H216.031V256.704H229.533V243.202Z" fill="white"/>
<path d="M229.533 256.704H216.031V270.206H229.533V256.704Z" fill="white"/>
<path d="M229.533 283.708H216.031V297.209H229.533V283.708Z" fill="white"/>
<path d="M229.533 297.209H216.031V310.711H229.533V297.209Z" fill="white"/>
<path d="M229.533 310.711H216.031V324.213H229.533V310.711Z" fill="white"/>
<path d="M229.533 324.213H216.031V337.715H229.533V324.213Z" fill="white"/>
<path d="M229.533 337.715H216.031V351.217H229.533V337.715Z" fill="white"/>
<path d="M229.533 364.719H216.031V378.221H229.533V364.719Z" fill="white"/>
<path d="M229.533 405.225H216.031V418.727H229.533V405.225Z" fill="white"/>
<path d="M243.035 27.1704H229.533V40.6724H243.035V27.1704Z" fill="white"/>
<path d="M243.035 40.6724H229.533V54.1743H243.035V40.6724Z" fill="white"/>
<path d="M243.035 54.1743H229.533V67.6763H243.035V54.1743Z" fill="white"/>
<path d="M243.035 67.6763H229.533V81.1782H243.035V67.6763Z" fill="white"/>
<path d="M243.035 121.684H229.533V135.186H243.035V121.684Z" fill="white"/>
<path d="M243.035 135.186H229.533V148.688H243.035V135.186Z" fill="white"/>
<path d="M243.035 162.19H229.533V175.692H243.035V162.19Z" fill="white"/>
<path d="M243.035 202.696H229.533V216.198H243.035V202.696Z" fill="white"/>
<path d="M243.035 229.7H229.533V243.202H243.035V229.7Z" fill="white"/>
<path d="M243.035 256.704H229.533V270.206H243.035V256.704Z" fill="white"/>
<path d="M243.035 270.206H229.533V283.708H243.035V270.206Z" fill="white"/>
<path d="M243.035 297.209H229.533V310.711H243.035V297.209Z" fill="white"/>
<path d="M243.035 310.711H229.533V324.213H243.035V310.711Z" fill="white"/>
<path d="M243.035 324.213H229.533V337.715H243.035V324.213Z" fill="white"/>
<path d="M243.035 351.217H229.533V364.719H243.035V351.217Z" fill="white"/>
<path d="M243.035 364.719H229.533V378.221H243.035V364.719Z" fill="white"/>
<path d="M243.035 378.221H229.533V391.723H243.035V378.221Z" fill="white"/>
<path d="M243.035 391.723H229.533V405.225H243.035V391.723Z" fill="white"/>
<path d="M243.035 405.225H229.533V418.727H243.035V405.225Z" fill="white"/>
<path d="M256.537 27.1704H243.035V40.6724H256.537V27.1704Z" fill="white"/>
<path d="M256.537 40.6724H243.035V54.1743H256.537V40.6724Z" fill="white"/>
<path d="M256.537 54.1743H243.035V67.6763H256.537V54.1743Z" fill="white"/>
<path d="M256.537 108.182H243.035V121.684H256.537V108.182Z" fill="white"/>
<path d="M256.537 135.186H243.035V148.688H256.537V135.186Z" fill="white"/>
<path d="M256.537 162.19H243.035V175.692H256.537V162.19Z" fill="white"/>
<path d="M256.537 189.194H243.035V202.696H256.537V189.194Z" fill="white"/>
<path d="M256.537 229.7H243.035V243.202H256.537V229.7Z" fill="white"/>
<path d="M256.537 243.202H243.035V256.704H256.537V243.202Z" fill="white"/>
<path d="M256.537 256.704H243.035V270.206H256.537V256.704Z" fill="white"/>
<path d="M256.537 297.209H243.035V310.711H256.537V297.209Z" fill="white"/>
<path d="M256.537 310.711H243.035V324.213H256.537V310.711Z" fill="white"/>
<path d="M256.537 337.715H243.035V351.217H256.537V337.715Z" fill="white"/>
<path d="M256.537 364.719H243.035V378.221H256.537V364.719Z" fill="white"/>
<path d="M256.537 405.225H243.035V418.727H256.537V405.225Z" fill="white"/>
<path d="M270.039 27.1704H256.537V40.6724H270.039V27.1704Z" fill="white"/>
<path d="M270.039 40.6724H256.537V54.1743H270.039V40.6724Z" fill="white"/>
<path d="M270.039 54.1743H256.537V67.6763H270.039V54.1743Z" fill="white"/>
<path d="M270.039 67.6763H256.537V81.1782H270.039V67.6763Z" fill="white"/>
<path d="M270.039 81.1782H256.537V94.6802H270.039V81.1782Z" fill="white"/>
<path d="M270.039 121.684H256.537V135.186H270.039V121.684Z" fill="white"/>
<path d="M270.039 202.696H256.537V216.198H270.039V202.696Z" fill="white"/>
<path d="M270.039 243.202H256.537V256.704H270.039V243.202Z" fill="white"/>
<path d="M270.039 270.206H256.537V283.708H270.039V270.206Z" fill="white"/>
<path d="M270.039 297.209H256.537V310.711H270.039V297.209Z" fill="white"/>
<path d="M270.039 310.711H256.537V324.213H270.039V310.711Z" fill="white"/>
<path d="M270.039 351.217H256.537V364.719H270.039V351.217Z" fill="white"/>
<path d="M270.039 364.719H256.537V378.221H270.039V364.719Z" fill="white"/>
<path d="M283.541 27.1704H270.039V40.6724H283.541V27.1704Z" fill="white"/>
<path d="M283.541 40.6724H270.039V54.1743H283.541V40.6724Z" fill="white"/>
<path d="M283.541 81.1782H270.039V94.6802H283.541V81.1782Z" fill="white"/>
<path d="M283.541 94.6802H270.039V108.182H283.541V94.6802Z" fill="white"/>
<path d="M283.541 108.182H270.039V121.684H283.541V108.182Z" fill="white"/>
<path d="M283.541 135.186H270.039V148.688H283.541V135.186Z" fill="white"/>
<path d="M283.541 148.688H270.039V162.19H283.541V148.688Z" fill="white"/>
<path d="M283.541 175.692H270.039V189.194H283.541V175.692Z" fill="white"/>
<path d="M283.541 189.194H270.039V202.696H283.541V189.194Z" fill="white"/>
<path d="M283.541 229.7H270.039V243.202H283.541V229.7Z" fill="white"/>
<path d="M283.541 283.708H270.039V297.209H283.541V283.708Z" fill="white"/>
<path d="M283.541 297.209H270.039V310.711H283.541V297.209Z" fill="white"/>
<path d="M283.541 378.221H270.039V391.723H283.541V378.221Z" fill="white"/>
<path d="M283.541 405.225H270.039V418.727H283.541V405.225Z" fill="white"/>
<path d="M297.043 27.1704H283.541V40.6724H297.043V27.1704Z" fill="white"/>
<path d="M297.043 40.6724H283.541V54.1743H297.043V40.6724Z" fill="white"/>
<path d="M297.043 67.6763H283.541V81.1782H297.043V67.6763Z" fill="white"/>
<path d="M297.043 94.6802H283.541V108.182H297.043V94.6802Z" fill="white"/>
<path d="M297.043 148.688H283.541V162.19H297.043V148.688Z" fill="white"/>
<path d="M297.043 175.692H283.541V189.194H297.043V175.692Z" fill="white"/>
<path d="M297.043 270.206H283.541V283.708H297.043V270.206Z" fill="white"/>
<path d="M297.043 283.708H283.541V297.209H297.043V283.708Z" fill="white"/>
<path d="M297.043 297.209H283.541V310.711H297.043V297.209Z" fill="white"/>
<path d="M297.043 310.711H283.541V324.213H297.043V310.711Z" fill="white"/>
<path d="M297.043 324.213H283.541V337.715H297.043V324.213Z" fill="white"/>
<path d="M297.043 337.715H283.541V351.217H297.043V337.715Z" fill="white"/>
<path d="M297.043 364.719H283.541V378.221H297.043V364.719Z" fill="white"/>
<path d="M297.043 378.221H283.541V391.723H297.043V378.221Z" fill="white"/>
<path d="M297.043 405.225H283.541V418.727H297.043V405.225Z" fill="white"/>
<path d="M310.545 27.1704H297.043V40.6724H310.545V27.1704Z" fill="white"/>
<path d="M310.545 40.6724H297.043V54.1743H310.545V40.6724Z" fill="white"/>
<path d="M310.545 67.6763H297.043V81.1782H310.545V67.6763Z" fill="white"/>
<path d="M310.545 108.182H297.043V121.684H310.545V108.182Z" fill="white"/>
<path d="M310.545 121.684H297.043V135.186H310.545V121.684Z" fill="white"/>
<path d="M310.545 148.688H297.043V162.19H310.545V148.688Z" fill="white"/>
<path d="M310.545 162.19H297.043V175.692H310.545V162.19Z" fill="white"/>
<path d="M310.545 175.692H297.043V189.194H310.545V175.692Z" fill="white"/>
<path d="M310.545 189.194H297.043V202.696H310.545V189.194Z" fill="white"/>
<path d="M310.545 202.696H297.043V216.198H310.545V202.696Z" fill="white"/>
<path d="M310.545 216.198H297.043V229.7H310.545V216.198Z" fill="white"/>
<path d="M310.545 229.7H297.043V243.202H310.545V229.7Z" fill="white"/>
<path d="M310.545 243.202H297.043V256.704H310.545V243.202Z" fill="white"/>
<path d="M310.545 256.704H297.043V270.206H310.545V256.704Z" fill="white"/>
<path d="M310.545 297.209H297.043V310.711H310.545V297.209Z" fill="white"/>
<path d="M310.545 310.711H297.043V324.213H310.545V310.711Z" fill="white"/>
<path d="M310.545 324.213H297.043V337.715H310.545V324.213Z" fill="white"/>
<path d="M310.545 337.715H297.043V351.217H310.545V337.715Z" fill="white"/>
<path d="M310.545 351.217H297.043V364.719H310.545V351.217Z" fill="white"/>
<path d="M310.545 378.221H297.043V391.723H310.545V378.221Z" fill="white"/>
<path d="M310.545 391.723H297.043V405.225H310.545V391.723Z" fill="white"/>
<path d="M324.047 135.186H310.545V148.688H324.047V135.186Z" fill="white"/>
<path d="M324.047 162.19H310.545V175.692H324.047V162.19Z" fill="white"/>
<path d="M324.047 175.692H310.545V189.194H324.047V175.692Z" fill="white"/>
<path d="M324.047 229.7H310.545V243.202H324.047V229.7Z" fill="white"/>
<path d="M324.047 243.202H310.545V256.704H324.047V243.202Z" fill="white"/>
<path d="M324.047 270.206H310.545V283.708H324.047V270.206Z" fill="white"/>
<path d="M324.047 283.708H310.545V297.209H324.047V283.708Z" fill="white"/>
<path d="M324.047 297.209H310.545V310.711H324.047V297.209Z" fill="white"/>
<path d="M324.047 351.217H310.545V364.719H324.047V351.217Z" fill="white"/>
<path d="M324.047 364.719H310.545V378.221H324.047V364.719Z" fill="white"/>
<path d="M324.047 378.221H310.545V391.723H324.047V378.221Z" fill="white"/>
<path d="M337.549 148.688H324.047V162.19H337.549V148.688Z" fill="white"/>
<path d="M337.549 175.692H324.047V189.194H337.549V175.692Z" fill="white"/>
<path d="M337.549 202.696H324.047V216.198H337.549V202.696Z" fill="white"/>
<path d="M337.549 229.7H324.047V243.202H337.549V229.7Z" fill="white"/>
<path d="M337.549 243.202H324.047V256.704H337.549V243.202Z" fill="white"/>
<path d="M337.549 256.704H324.047V270.206H337.549V256.704Z" fill="white"/>
<path d="M337.549 270.206H324.047V283.708H337.549V270.206Z" fill="white"/>
<path d="M337.549 283.708H324.047V297.209H337.549V283.708Z" fill="white"/>
<path d="M337.549 297.209H324.047V310.711H337.549V297.209Z" fill="white"/>
<path d="M337.549 324.213H324.047V337.715H337.549V324.213Z" fill="white"/>
<path d="M337.549 351.217H324.047V364.719H337.549V351.217Z" fill="white"/>
<path d="M337.549 378.221H324.047V391.723H337.549V378.221Z" fill="white"/>
<path d="M351.051 135.186H337.549V148.688H351.051V135.186Z" fill="white"/>
<path d="M351.051 148.688H337.549V162.19H351.051V148.688Z" fill="white"/>
<path d="M351.051 162.19H337.549V175.692H351.051V162.19Z" fill="white"/>
<path d="M351.051 189.194H337.549V202.696H351.051V189.194Z" fill="white"/>
<path d="M351.051 202.696H337.549V216.198H351.051V202.696Z" fill="white"/>
<path d="M351.051 216.198H337.549V229.7H351.051V216.198Z" fill="white"/>
<path d="M351.051 229.7H337.549V243.202H351.051V229.7Z" fill="white"/>
<path d="M351.051 256.704H337.549V270.206H351.051V256.704Z" fill="white"/>
<path d="M351.051 283.708H337.549V297.209H351.051V283.708Z" fill="white"/>
<path d="M351.051 297.209H337.549V310.711H351.051V297.209Z" fill="white"/>
<path d="M351.051 351.217H337.549V364.719H351.051V351.217Z" fill="white"/>
<path d="M351.051 364.719H337.549V378.221H351.051V364.719Z" fill="white"/>
<path d="M351.051 391.723H337.549V405.225H351.051V391.723Z" fill="white"/>
<path d="M364.553 135.186H351.051V148.688H364.553V135.186Z" fill="white"/>
<path d="M364.553 202.696H351.051V216.198H364.553V202.696Z" fill="white"/>
<path d="M364.553 216.198H351.051V229.7H364.553V216.198Z" fill="white"/>
<path d="M364.553 243.202H351.051V256.704H364.553V243.202Z" fill="white"/>
<path d="M364.553 256.704H351.051V270.206H364.553V256.704Z" fill="white"/>
<path d="M364.553 270.206H351.051V283.708H364.553V270.206Z" fill="white"/>
<path d="M364.553 283.708H351.051V297.209H364.553V283.708Z" fill="white"/>
<path d="M364.553 297.209H351.051V310.711H364.553V297.209Z" fill="white"/>
<path d="M364.553 310.711H351.051V324.213H364.553V310.711Z" fill="white"/>
<path d="M364.553 324.213H351.051V337.715H364.553V324.213Z" fill="white"/>
<path d="M364.553 337.715H351.051V351.217H364.553V337.715Z" fill="white"/>
<path d="M364.553 351.217H351.051V364.719H364.553V351.217Z" fill="white"/>
<path d="M378.055 135.186H364.553V148.688H378.055V135.186Z" fill="white"/>
<path d="M378.055 162.19H364.553V175.692H378.055V162.19Z" fill="white"/>
<path d="M378.055 175.692H364.553V189.194H378.055V175.692Z" fill="white"/>
<path d="M378.055 189.194H364.553V202.696H378.055V189.194Z" fill="white"/>
<path d="M378.055 216.198H364.553V229.7H378.055V216.198Z" fill="white"/>
<path d="M378.055 243.202H364.553V256.704H378.055V243.202Z" fill="white"/>
<path d="M378.055 256.704H364.553V270.206H378.055V256.704Z" fill="white"/>
<path d="M378.055 337.715H364.553V351.217H378.055V337.715Z" fill="white"/>
<path d="M378.055 364.719H364.553V378.221H378.055V364.719Z" fill="white"/>
<path d="M378.055 378.221H364.553V391.723H378.055V378.221Z" fill="white"/>
<path d="M378.055 391.723H364.553V405.225H378.055V391.723Z" fill="white"/>
<path d="M391.557 175.692H378.055V189.194H391.557V175.692Z" fill="white"/>
<path d="M391.557 216.198H378.055V229.7H391.557V216.198Z" fill="white"/>
<path d="M391.557 243.202H378.055V256.704H391.557V243.202Z" fill="white"/>
<path d="M391.557 270.206H378.055V283.708H391.557V270.206Z" fill="white"/>
<path d="M391.557 297.209H378.055V310.711H391.557V297.209Z" fill="white"/>
<path d="M391.557 310.711H378.055V324.213H391.557V310.711Z" fill="white"/>
<path d="M391.557 337.715H378.055V351.217H391.557V337.715Z" fill="white"/>
<path d="M391.557 351.217H378.055V364.719H391.557V351.217Z" fill="white"/>
<path d="M391.557 364.719H378.055V378.221H391.557V364.719Z" fill="white"/>
<path d="M391.557 391.723H378.055V405.225H391.557V391.723Z" fill="white"/>
<path d="M391.557 405.225H378.055V418.727H391.557V405.225Z" fill="white"/>
<path d="M405.059 135.186H391.557V148.688H405.059V135.186Z" fill="white"/>
<path d="M405.059 175.692H391.557V189.194H405.059V175.692Z" fill="white"/>
<path d="M405.059 229.7H391.557V243.202H405.059V229.7Z" fill="white"/>
<path d="M405.059 283.708H391.557V297.209H405.059V283.708Z" fill="white"/>
<path d="M405.059 351.217H391.557V364.719H405.059V351.217Z" fill="white"/>
<path d="M405.059 364.719H391.557V378.221H405.059V364.719Z" fill="white"/>
<path d="M405.059 378.221H391.557V391.723H405.059V378.221Z" fill="white"/>
<path d="M405.059 405.225H391.557V418.727H405.059V405.225Z" fill="white"/>
<path d="M418.561 175.692H405.059V189.194H418.561V175.692Z" fill="white"/>
<path d="M418.561 202.696H405.059V216.198H418.561V202.696Z" fill="white"/>
<path d="M418.561 216.198H405.059V229.7H418.561V216.198Z" fill="white"/>
<path d="M418.561 297.209H405.059V310.711H418.561V297.209Z" fill="white"/>
<path d="M418.561 310.711H405.059V324.213H418.561V310.711Z" fill="white"/>
<path d="M418.561 337.715H405.059V351.217H418.561V337.715Z" fill="white"/>
<path d="M418.561 351.217H405.059V364.719H418.561V351.217Z" fill="white"/>
<path d="M418.561 364.719H405.059V378.221H418.561V364.719Z" fill="white"/>
<path d="M418.561 378.221H405.059V391.723H418.561V378.221Z" fill="white"/>
</mask>
<g mask="url(#mask0_852_5)">
<path d="M418.561 27.1704H27.0039V418.727H418.561V27.1704Z" fill="white"/>
</g>
<mask id="mask1_852_5" style="mask-type:luminance" maskUnits="userSpaceOnUse" x="27" y="27" width="95" height="95">
<path d="M40.5059 27.1704H27.0039V40.6724H40.5059V27.1704Z" fill="white"/>
<path d="M40.5059 40.6724H27.0039V54.1743H40.5059V40.6724Z" fill="white"/>
<path d="M40.5059 54.1743H27.0039V67.6763H40.5059V54.1743Z" fill="white"/>
<path d="M40.5059 67.6763H27.0039V81.1782H40.5059V67.6763Z" fill="white"/>
<path d="M40.5059 81.1782H27.0039V94.6802H40.5059V81.1782Z" fill="white"/>
<path d="M40.5059 94.6802H27.0039V108.182H40.5059V94.6802Z" fill="white"/>
<path d="M40.5059 108.182H27.0039V121.684H40.5059V108.182Z" fill="white"/>
<path d="M54.0078 27.1704H40.5059V40.6724H54.0078V27.1704Z" fill="white"/>
<path d="M54.0078 108.182H40.5059V121.684H54.0078V108.182Z" fill="white"/>
<path d="M67.5098 27.1704H54.0078V40.6724H67.5098V27.1704Z" fill="white"/>
<path d="M67.5098 108.182H54.0078V121.684H67.5098V108.182Z" fill="white"/>
<path d="M81.0117 27.1704H67.5098V40.6724H81.0117V27.1704Z" fill="white"/>
<path d="M81.0117 108.182H67.5098V121.684H81.0117V108.182Z" fill="white"/>
<path d="M94.5137 27.1704H81.0117V40.6724H94.5137V27.1704Z" fill="white"/>
<path d="M94.5137 108.182H81.0117V121.684H94.5137V108.182Z" fill="white"/>
<path d="M108.016 27.1704H94.5137V40.6724H108.016V27.1704Z" fill="white"/>
<path d="M108.016 108.182H94.5137V121.684H108.016V108.182Z" fill="white"/>
<path d="M121.518 27.1704H108.016V40.6724H121.518V27.1704Z" fill="white"/>
<path d="M121.518 40.6724H108.016V54.1743H121.518V40.6724Z" fill="white"/>
<path d="M121.518 54.1743H108.016V67.6763H121.518V54.1743Z" fill="white"/>
<path d="M121.518 67.6763H108.016V81.1782H121.518V67.6763Z" fill="white"/>
<path d="M121.518 81.1782H108.016V94.6802H121.518V81.1782Z" fill="white"/>
<path d="M121.518 94.6802H108.016V108.182H121.518V94.6802Z" fill="white"/>
<path d="M121.518 108.182H108.016V121.684H121.518V108.182Z" fill="white"/>
</mask>
<g mask="url(#mask1_852_5)">
<path d="M121.518 27.1704H27.0039V121.684H121.518V27.1704Z" fill="white"/>
</g>
<mask id="mask2_852_5" style="mask-type:luminance" maskUnits="userSpaceOnUse" x="54" y="54" width="41" height="41">
<path d="M67.5098 54.1743H54.0078V67.6763H67.5098V54.1743Z" fill="white"/>
<path d="M67.5098 67.6763H54.0078V81.1782H67.5098V67.6763Z" fill="white"/>
<path d="M67.5098 81.1782H54.0078V94.6802H67.5098V81.1782Z" fill="white"/>
<path d="M81.0117 54.1743H67.5098V67.6763H81.0117V54.1743Z" fill="white"/>
<path d="M81.0117 67.6763H67.5098V81.1782H81.0117V67.6763Z" fill="white"/>
<path d="M81.0117 81.1782H67.5098V94.6802H81.0117V81.1782Z" fill="white"/>
<path d="M94.5137 54.1743H81.0117V67.6763H94.5137V54.1743Z" fill="white"/>
<path d="M94.5137 67.6763H81.0117V81.1782H94.5137V67.6763Z" fill="white"/>
<path d="M94.5137 81.1782H81.0117V94.6802H94.5137V81.1782Z" fill="white"/>
</mask>
<g mask="url(#mask2_852_5)">
<path d="M94.5137 54.1743H54.0078V94.6802H94.5137V54.1743Z" fill="white"/>
</g>
<mask id="mask3_852_5" style="mask-type:luminance" maskUnits="userSpaceOnUse" x="324" y="27" width="95" height="95">
<path d="M337.549 27.1704H324.047V40.6724H337.549V27.1704Z" fill="white"/>
<path d="M337.549 40.6724H324.047V54.1743H337.549V40.6724Z" fill="white"/>
<path d="M337.549 54.1743H324.047V67.6763H337.549V54.1743Z" fill="white"/>
<path d="M337.549 67.6763H324.047V81.1782H337.549V67.6763Z" fill="white"/>
<path d="M337.549 81.1782H324.047V94.6802H337.549V81.1782Z" fill="white"/>
<path d="M337.549 94.6802H324.047V108.182H337.549V94.6802Z" fill="white"/>
<path d="M337.549 108.182H324.047V121.684H337.549V108.182Z" fill="white"/>
<path d="M351.051 27.1704H337.549V40.6724H351.051V27.1704Z" fill="white"/>
<path d="M351.051 108.182H337.549V121.684H351.051V108.182Z" fill="white"/>
<path d="M364.553 27.1704H351.051V40.6724H364.553V27.1704Z" fill="white"/>
<path d="M364.553 108.182H351.051V121.684H364.553V108.182Z" fill="white"/>
<path d="M378.055 27.1704H364.553V40.6724H378.055V27.1704Z" fill="white"/>
<path d="M378.055 108.182H364.553V121.684H378.055V108.182Z" fill="white"/>
<path d="M391.557 27.1704H378.055V40.6724H391.557V27.1704Z" fill="white"/>
<path d="M391.557 108.182H378.055V121.684H391.557V108.182Z" fill="white"/>
<path d="M405.059 27.1704H391.557V40.6724H405.059V27.1704Z" fill="white"/>
<path d="M405.059 108.182H391.557V121.684H405.059V108.182Z" fill="white"/>
<path d="M418.561 27.1704H405.059V40.6724H418.561V27.1704Z" fill="white"/>
<path d="M418.561 40.6724H405.059V54.1743H418.561V40.6724Z" fill="white"/>
<path d="M418.561 54.1743H405.059V67.6763H418.561V54.1743Z" fill="white"/>
<path d="M418.561 67.6763H405.059V81.1782H418.561V67.6763Z" fill="white"/>
<path d="M418.561 81.1782H405.059V94.6802H418.561V81.1782Z" fill="white"/>
<path d="M418.561 94.6802H405.059V108.182H418.561V94.6802Z" fill="white"/>
<path d="M418.561 108.182H405.059V121.684H418.561V108.182Z" fill="white"/>
</mask>
<g mask="url(#mask3_852_5)">
<path d="M418.561 27.1704H324.047V121.684H418.561V27.1704Z" fill="white"/>
</g>
<mask id="mask4_852_5" style="mask-type:luminance" maskUnits="userSpaceOnUse" x="351" y="54" width="41" height="41">
<path d="M364.553 54.1743H351.051V67.6763H364.553V54.1743Z" fill="white"/>
<path d="M364.553 67.6763H351.051V81.1782H364.553V67.6763Z" fill="white"/>
<path d="M364.553 81.1782H351.051V94.6802H364.553V81.1782Z" fill="white"/>
<path d="M378.055 54.1743H364.553V67.6763H378.055V54.1743Z" fill="white"/>
<path d="M378.055 67.6763H364.553V81.1782H378.055V67.6763Z" fill="white"/>
<path d="M378.055 81.1782H364.553V94.6802H378.055V81.1782Z" fill="white"/>
<path d="M391.557 54.1743H378.055V67.6763H391.557V54.1743Z" fill="white"/>
<path d="M391.557 67.6763H378.055V81.1782H391.557V67.6763Z" fill="white"/>
<path d="M391.557 81.1782H378.055V94.6802H391.557V81.1782Z" fill="white"/>
</mask>
<g mask="url(#mask4_852_5)">
<path d="M391.557 54.1743H351.051V94.6802H391.557V54.1743Z" fill="white"/>
</g>
<mask id="mask5_852_5" style="mask-type:luminance" maskUnits="userSpaceOnUse" x="27" y="324" width="95" height="95">
<path d="M40.5059 324.213H27.0039V337.715H40.5059V324.213Z" fill="white"/>
<path d="M40.5059 337.715H27.0039V351.217H40.5059V337.715Z" fill="white"/>
<path d="M40.5059 351.217H27.0039V364.719H40.5059V351.217Z" fill="white"/>
<path d="M40.5059 364.719H27.0039V378.221H40.5059V364.719Z" fill="white"/>
<path d="M40.5059 378.221H27.0039V391.723H40.5059V378.221Z" fill="white"/>
<path d="M40.5059 391.723H27.0039V405.225H40.5059V391.723Z" fill="white"/>
<path d="M40.5059 405.225H27.0039V418.727H40.5059V405.225Z" fill="white"/>
<path d="M54.0078 324.213H40.5059V337.715H54.0078V324.213Z" fill="white"/>
<path d="M54.0078 405.225H40.5059V418.727H54.0078V405.225Z" fill="white"/>
<path d="M67.5098 324.213H54.0078V337.715H67.5098V324.213Z" fill="white"/>
<path d="M67.5098 405.225H54.0078V418.727H67.5098V405.225Z" fill="white"/>
<path d="M81.0117 324.213H67.5098V337.715H81.0117V324.213Z" fill="white"/>
<path d="M81.0117 405.225H67.5098V418.727H81.0117V405.225Z" fill="white"/>
<path d="M94.5137 324.213H81.0117V337.715H94.5137V324.213Z" fill="white"/>
<path d="M94.5137 405.225H81.0117V418.727H94.5137V405.225Z" fill="white"/>
<path d="M108.016 324.213H94.5137V337.715H108.016V324.213Z" fill="white"/>
<path d="M108.016 405.225H94.5137V418.727H108.016V405.225Z" fill="white"/>
<path d="M121.518 324.213H108.016V337.715H121.518V324.213Z" fill="white"/>
<path d="M121.518 337.715H108.016V351.217H121.518V337.715Z" fill="white"/>
<path d="M121.518 351.217H108.016V364.719H121.518V351.217Z" fill="white"/>
<path d="M121.518 364.719H108.016V378.221H121.518V364.719Z" fill="white"/>
<path d="M121.518 378.221H108.016V391.723H121.518V378.221Z" fill="white"/>
<path d="M121.518 391.723H108.016V405.225H121.518V391.723Z" fill="white"/>
<path d="M121.518 405.225H108.016V418.727H121.518V405.225Z" fill="white"/>
</mask>
<g mask="url(#mask5_852_5)">
<path d="M121.518 324.213H27.0039V418.727H121.518V324.213Z" fill="white"/>
</g>
<mask id="mask6_852_5" style="mask-type:luminance" maskUnits="userSpaceOnUse" x="54" y="351" width="41" height="41">
<path d="M67.5098 351.217H54.0078V364.719H67.5098V351.217Z" fill="white"/>
<path d="M67.5098 364.719H54.0078V378.221H67.5098V364.719Z" fill="white"/>
<path d="M67.5098 378.221H54.0078V391.723H67.5098V378.221Z" fill="white"/>
<path d="M81.0117 351.217H67.5098V364.719H81.0117V351.217Z" fill="white"/>
<path d="M81.0117 364.719H67.5098V378.221H81.0117V364.719Z" fill="white"/>
<path d="M81.0117 378.221H67.5098V391.723H81.0117V378.221Z" fill="white"/>
<path d="M94.5137 351.217H81.0117V364.719H94.5137V351.217Z" fill="white"/>
<path d="M94.5137 364.719H81.0117V378.221H94.5137V364.719Z" fill="white"/>
<path d="M94.5137 378.221H81.0117V391.723H94.5137V378.221Z" fill="white"/>
</mask>
<g mask="url(#mask6_852_5)">
<path d="M94.5137 351.217H54.0078V391.723H94.5137V351.217Z" fill="white"/>
</g>
</g>
<defs>
<clipPath id="clip0_852_5">
<rect width="446" height="446" fill="white" transform="translate(0 0.166504)"/>
</clipPath>
</defs>
</svg>
